<?xml version="1.0" encoding="UTF-8"?>
<svg id="Layer_1" xmlns="http://www.w3.org/2000/svg" version="1.1" viewBox="0 0 1494.7 366">
  <!-- Generator: Adobe Illustrator 29.2.0, SVG Export Plug-In . SVG Version: 2.1.0 Build 108)  -->
  <defs>
    <style>
      .st0 {
        fill: #15a244;
      }
    </style>
  </defs>
  <path class="st0" d="M236.3,13.3l164.9,285.2c.7,2.2.7,4.6.4,6.8-.5,5.8-19.4,37.5-23.7,44.3s-6.8,10.8-15.7,11.5l-326.7-.4c-5.1-1.9-7.3-4.5-10.3-8.7-6.2-8.9-18.4-29.9-22.7-39.8-2.3-5.4-3.1-8.1-1.4-14.1,2.2-7.6,14.5-26.3,19.1-34.4,38.2-67.4,77.7-134.4,116.7-201.4,7.2-12.3,19.6-39.4,28.4-48.6,2-2.2,5.1-4.2,8-4.7,8.1-1.8,43-1.4,52.1-.4,4.1.4,8,2.3,11,4.9h0ZM222.1,225l58.7-100.8-58.7-100.3v49.8h-71.2l-58.5,101.5h129.7v49.8h0ZM247.5,343.7h116l-41.6-25c-.8-3.5,32.8-53.6,34.4-62.3l-57.5-100.2-64.8,111.5c-.7.5-5-2-6.1-2.6-9.6-5.1-22.1-14.6-31.4-18.4-1.5-.5-2.7-.9-4.3-.7l.7,3.4,54.5,94.5h0v-.3ZM95.7,343.7h116.4l-64.3-112.1,41.6-25.6-114.5-.8-1.9,1.6-55.6,97.9,42.5-22.6,35.9,61.6h0Z"/>
  <g>
    <path class="st0" d="M462.7,92.7h84.1v181.8h-84.1V92.7ZM611.9,99.6c11.7,4.6,20.3,11.2,25.7,19.7,5.5,8.6,8.2,19,8.2,31.3s-2.1,24.4-6.4,33.8c-4.2,9.3-12.8,16.9-25.6,22.7-12.8,5.8-31.3,8.7-55.6,8.7h-21.3l-11.2-26.5h25.2c9.5,0,16.5-1.6,21-4.9,4.5-3.3,6.8-9.5,6.8-18.7s-1.1-10.5-3.2-13.9c-2.2-3.4-5.2-5.8-9.2-7.1-4-1.4-9.1-2.1-15.3-2.1h-25.2l11.2-49.9h30.4c18,0,32.9,2.3,44.5,6.9ZM568.1,252.7c-2.1-4.8-5.2-12.1-9.3-21.8-4.7-11.1-9.3-22.2-14-33.2l66.7-2.3,13,19.2,43.4,60.5h-90.1c-4.3-10-7.5-17.5-9.6-22.3Z"/>
    <path class="st0" d="M672,92.7h154.3v55.3l-85.2-2.6v26.2l80.2-1v25.2l-80.2-1.3v27.3l88.8-2.6v55.3h-157.9V92.7Z"/>
    <path class="st0" d="M889.9,270c-13.2-4.6-23.8-12.6-31.8-24-8.1-11.4-12.1-26.9-12.1-46.5v-106.7h70.9v112.7c0,6.1.4,10.8,1.2,14.3.8,3.5,2.5,6.1,5.1,7.9,2.6,1.8,6.6,2.7,11.9,2.7s11.4-1.9,13.4-5.6c2-3.7,3-10.2,3-19.3v-112.7h78.2v106.7c0,19.7-4.1,35.3-12.3,46.7-8.2,11.4-19.3,19.4-33.2,23.9-13.9,4.5-30.3,6.8-49,6.8s-32-2.3-45.2-6.9Z"/>
    <path class="st0" d="M1097.4,275c-12.3-2.1-23.2-5.3-32.9-9.6-9.6-4.3-17.8-9.9-24.5-16.6l32.2-44.9c1,.7,4.2,2.4,9.3,5.2,5.9,2.8,12.2,5.2,19.1,7.3,6.8,2.1,13.9,3.7,21.3,4.8,7.4,1.1,14.6,1.7,21.7,1.7s12.4-.4,16.4-1.2c4-.8,6.7-1.8,8.2-3,1.5-1.2,2.2-2.6,2.2-4.2s-.3-2.2-.9-3.1c-.6-.9-1.5-1.5-2.7-1.9-1.2-.4-2.8-.6-4.7-.6-20.6,0-39.3-1.6-56-4.7-16.7-3.1-30.6-9.2-41.8-18.3-11.2-9.1-16.8-21.9-16.8-38.6s2.6-21.3,7.8-30c5.2-8.7,14.2-15.8,27.1-21.3,12.9-5.5,30.3-8.2,52.1-8.2s30.7,1.5,46.5,4.4c15.8,2.9,29.1,6.6,40,10.9l-29.3,45.4c-4.8-2.1-10.1-3.9-15.8-5.5-5.7-1.6-12.1-2.8-19.2-3.8-7.1-.9-14.6-1.4-22.6-1.4s-10.7.6-13.9,1.7c-3.2,1.1-4.8,3.2-4.8,6.1s1,3.7,3,4.9c2,1.2,5,2,9,2.3,4.5.5,9.1,1,13.9,1.4,4.8.4,9.7.9,14.9,1.4,15.4,1.4,28.5,3.9,39.2,7.7,10.7,3.7,19.1,9.3,25.2,16.8,6.1,7.4,9.1,17.1,9.1,28.8s-4.7,30.1-14,40.5c-9.3,10.4-21,17.7-34.8,22.1-13.9,4.3-28,6.5-42.6,6.5s-28.5-1-40.8-3.1Z"/>
    <path class="st0" d="M1279.2,92.7h122.1l41,181.8h-87.3c-.7-4-1.2-7-1.4-9-.3-2-.7-4.9-1.4-8.7-.5-4.7-1.5-10.6-2.9-17.7h-35.8l-4.9,35.3h-71.2l41.8-181.8ZM1346.7,199.2c-.5-2.9-1-5.9-1.3-8.8-3.6-24.9-6.4-48-8.3-69.3h-10.1c-1.7,19-4.3,39.8-7.8,62.3-.7,5.7-1.3,9.9-1.7,12.6-.4,2.7-1,6.8-1.7,12.3h32.2c-.3-3.1-.8-6.1-1.3-9.1Z"/>
  </g>
</svg>